<svg width="13" height="12" viewBox="0 0 13 12" fill="none" xmlns="http://www.w3.org/2000/svg">
<circle cx="6.33325" cy="6" r="5.9" fill="black" stroke="#00FFFF" stroke-width="0.2"/>
<path fill-rule="evenodd" clip-rule="evenodd" d="M10.0836 5.99994C10.0836 7.44968 8.90832 8.62493 7.45858 8.62493C7.05597 8.62493 6.67454 8.53429 6.33357 8.37231C5.99258 8.53432 5.61112 8.62497 5.20849 8.62497C3.75874 8.62497 2.5835 7.44972 2.5835 5.99998C2.5835 4.55024 3.75874 3.37499 5.20849 3.37499C5.61103 3.37499 5.99241 3.4656 6.33334 3.62754C5.44662 4.04888 4.83359 4.95275 4.83359 5.9998C4.83359 7.04688 5.44666 7.95078 6.33343 8.3721C7.2202 7.95078 7.83328 7.04688 7.83328 5.9998C7.83328 4.95277 7.22027 4.04892 6.33358 3.62756C6.67455 3.46559 7.05598 3.37495 7.45858 3.37495C8.90832 3.37495 10.0836 4.5502 10.0836 5.99994Z" fill="#00FFFF"/>
</svg>
