<svg width="6" height="6" viewBox="0 0 6 6" fill="none" xmlns="http://www.w3.org/2000/svg">
<path d="M4.99857 0.105093C4.90292 0.0518646 4.79771 0.0180148 4.68896 0.00547919C4.58021 -0.00705643 4.47005 0.00196791 4.3648 0.0320362C4.25954 0.0621046 4.16124 0.112627 4.07552 0.180714C3.9898 0.248802 3.91835 0.333118 3.86524 0.428843L2.31816 3.21301L1.43274 2.32759C1.35587 2.248 1.26391 2.18452 1.16224 2.14084C1.06057 2.09717 0.951224 2.07418 0.840575 2.07322C0.729925 2.07226 0.620192 2.09334 0.517778 2.13524C0.415365 2.17714 0.322322 2.23902 0.244078 2.31726C0.165834 2.39551 0.103956 2.48855 0.0620555 2.59096C0.0201547 2.69338 -0.00093005 2.80311 3.14639e-05 2.91376C0.000992978 3.02441 0.0239815 3.13376 0.0676557 3.23543C0.11133 3.3371 0.174815 3.42905 0.254407 3.50593L1.92107 5.17259C2.07857 5.33051 2.29107 5.41718 2.51024 5.41718L2.62566 5.40884C2.75339 5.39098 2.87522 5.3437 2.98158 5.27075C3.08794 5.1978 3.17591 5.10115 3.23857 4.98843L5.32191 1.23843C5.3751 1.14278 5.40892 1.0376 5.42146 0.928876C5.434 0.820156 5.425 0.710032 5.39497 0.604791C5.36495 0.499551 5.31449 0.401254 5.24647 0.315516C5.17846 0.229777 5.09422 0.158275 4.99857 0.105093Z" fill="black"/>
</svg>
