<svg width="60" height="60" viewBox="0 0 60 60" fill="none" xmlns="http://www.w3.org/2000/svg">
<path fill-rule="evenodd" clip-rule="evenodd" d="M30.5 9C32.3252 11.2414 34.365 13.2694 36.5123 15.1906C35.0629 19.8335 34.3114 24.8501 34.3114 29.9733C34.3114 35.0966 35.1166 40.1131 36.566 44.8094C34.365 46.6773 32.3788 48.7586 30.5537 51C28.7285 48.7586 26.6887 46.7306 24.5414 44.8094C25.9908 40.1131 26.796 35.1499 26.796 29.9733C26.796 24.7967 25.9908 19.8335 24.5414 15.1372C26.6887 13.2694 28.6748 11.2414 30.5 9ZM20.3006 41.554C17.9923 39.953 15.523 38.5121 13 37.338C13.6979 35.0432 14.0736 32.5349 14.0736 30.0267C14.0736 27.5184 13.6979 25.0102 13 22.7154C15.5767 21.4879 17.9923 20.1004 20.3006 18.4994C21.1595 22.2351 21.6426 26.0775 21.6426 30.0801C21.6963 33.9759 21.2132 37.8717 20.3006 41.554ZM39.3574 29.9733C39.3574 33.9759 39.8405 37.8183 40.6994 41.554C43.0077 39.953 45.477 38.5121 48 37.338C47.3021 35.0432 46.9264 32.5349 46.9264 30.0267C46.9264 27.5184 47.3021 25.0102 48 22.7154C45.4233 21.4879 43.0077 20.1004 40.6994 18.4994C39.8405 22.1283 39.3574 26.0241 39.3574 29.9733Z" fill="#6851FF"/>
</svg>
