<svg width="60" height="60" viewBox="0 0 60 60" fill="none" xmlns="http://www.w3.org/2000/svg">
<path fill-rule="evenodd" clip-rule="evenodd" d="M36.8435 41.6544L32.6458 42.7811V41.2994L32.3112 40.9599H29.9082V42.6885V43.9077H32.4785L35.6419 42.5187L36.8435 41.6544Z" fill="#CDBDB2"/>
<path fill-rule="evenodd" clip-rule="evenodd" d="M23.1562 41.6544L27.2626 42.7811V41.2994L27.6124 40.9599H30.0002V42.6885V43.9077H27.43L24.2664 42.5187L23.1562 41.6544Z" fill="#CDBDB2"/>
<path fill-rule="evenodd" clip-rule="evenodd" d="M32.3121 38.4437L32.6467 41.299L32.2208 40.9594H27.7798L27.2627 41.299L27.6125 38.4437L28.2969 38.0116L31.7189 38.0888L32.3121 38.4437Z" fill="#393939"/>
<path fill-rule="evenodd" clip-rule="evenodd" d="M34.624 19.0741L32.5708 23.9358L31.6279 38.0885H28.2971L27.2629 23.9358L25.377 19.0741H34.624Z" fill="#F89C35"/>
<path fill-rule="evenodd" clip-rule="evenodd" d="M43.5974 29.7547L46.0004 36.7925L40.0081 36.4375H36.1602V33.3971L36.3275 27.1618L37.1944 27.8409L43.5974 29.7547Z" fill="#F89D35"/>
<path fill-rule="evenodd" clip-rule="evenodd" d="M39.064 30.5419L32.0527 30.7116L32.8283 34.354L36.1591 33.4897L39.064 30.5419Z" fill="#D87C30"/>
<path fill-rule="evenodd" clip-rule="evenodd" d="M39.0631 30.6188L36.1582 33.3968V36.1749L39.0631 30.6188Z" fill="#EA8D3A"/>
<path fill-rule="evenodd" clip-rule="evenodd" d="M36.1593 33.4892L32.7373 34.3534L31.627 38.0884L32.4027 38.5206L36.1593 36.2672V33.4892Z" fill="#F89D35"/>
<path fill-rule="evenodd" clip-rule="evenodd" d="M36.1593 36.2678L36.8438 41.6542L32.3115 38.444L36.1593 36.2678Z" fill="#EB8F35"/>
<path fill-rule="evenodd" clip-rule="evenodd" d="M32.0553 30.7115L31.6299 38.0888L32.9061 34.323L32.0553 30.7115Z" fill="#EA8E3A"/>
<path fill-rule="evenodd" clip-rule="evenodd" d="M40.0993 36.3604L36.1602 36.2678L36.8446 41.6542L40.0993 36.3604Z" fill="#D87C30"/>
<path fill-rule="evenodd" clip-rule="evenodd" d="M44.1137 44L36.8438 41.6541L40.0984 36.3603L45.9995 36.7924L44.1137 44Z" fill="#EB8F35"/>
<path fill-rule="evenodd" clip-rule="evenodd" d="M32.5698 23.9361L36.2503 27.0691L39.064 30.5417L32.0527 30.8041L32.5698 23.9361Z" fill="#E8821E"/>
<path fill-rule="evenodd" clip-rule="evenodd" d="M36.8438 41.6541L32.3115 38.4438L32.6461 41.2219V42.7807L35.7335 42.1788L36.8438 41.6541Z" fill="#DFCEC3"/>
<path fill-rule="evenodd" clip-rule="evenodd" d="M23.1562 41.6541L27.6125 38.4438L27.2627 41.2219V42.7807L24.1905 42.1788L23.1562 41.6541Z" fill="#DFCEC3"/>
<path fill-rule="evenodd" clip-rule="evenodd" d="M33.94 32.2701L32.9971 34.2765L36.3278 33.3967L33.94 32.2701Z" fill="#393939"/>
<path fill-rule="evenodd" clip-rule="evenodd" d="M44.2072 15L32.5723 23.9361L34.5343 19.0745L44.2072 15Z" fill="#E88F35"/>
<path fill-rule="evenodd" clip-rule="evenodd" d="M44.2055 15L45.7416 19.769L44.8899 24.9856L45.483 25.3252L44.6313 26.1123L45.3157 26.7142L44.3728 27.5785L44.9659 28.1032L43.5971 29.8318L37.1789 27.8409C34.0459 25.2943 32.4946 23.9979 32.5554 23.9361C32.6163 23.8744 36.5097 20.8957 44.2055 15Z" fill="#8E5A30"/>
<path fill-rule="evenodd" clip-rule="evenodd" d="M16.403 29.7547L14 36.7925L19.9923 36.4375H23.8402V33.3971L23.6729 27.1618L22.8212 27.8409L16.403 29.7547Z" fill="#F89D35"/>
<path fill-rule="evenodd" clip-rule="evenodd" d="M20.9365 30.5419L27.9478 30.7116L27.1874 34.354L23.8414 33.4897L20.9365 30.5419Z" fill="#D87C30"/>
<path fill-rule="evenodd" clip-rule="evenodd" d="M20.9365 30.6188L23.8414 33.3968V36.1749L20.9365 30.6188Z" fill="#EA8D3A"/>
<path fill-rule="evenodd" clip-rule="evenodd" d="M23.8408 33.4892L27.2628 34.3534L28.3731 38.0884L27.6126 38.5206L23.8408 36.2672V33.4892Z" fill="#F89D35"/>
<path fill-rule="evenodd" clip-rule="evenodd" d="M23.8407 36.2678L23.1562 41.6542L27.6125 38.5211L23.8407 36.2678Z" fill="#EB8F35"/>
<path fill-rule="evenodd" clip-rule="evenodd" d="M27.9456 30.7115L28.371 38.0888L27.0947 34.323L27.9456 30.7115Z" fill="#EA8E3A"/>
<path fill-rule="evenodd" clip-rule="evenodd" d="M19.9023 36.3604L23.8415 36.2678L23.1571 41.6542L19.9023 36.3604Z" fill="#D87C30"/>
<path fill-rule="evenodd" clip-rule="evenodd" d="M15.8859 44L23.1558 41.6541L19.9011 36.3603L14 36.7924L15.8859 44Z" fill="#EB8F35"/>
<path fill-rule="evenodd" clip-rule="evenodd" d="M27.4307 23.9361L23.7502 27.0691L20.9365 30.5417L27.9478 30.8041L27.4307 23.9361Z" fill="#E8821E"/>
<path fill-rule="evenodd" clip-rule="evenodd" d="M26.0607 32.2701L27.0036 34.2765L23.6729 33.3967L26.0607 32.2701Z" fill="#393939"/>
<path fill-rule="evenodd" clip-rule="evenodd" d="M15.7949 15L27.4297 23.9361L25.4677 19.0745L15.7949 15Z" fill="#E88F35"/>
<path fill-rule="evenodd" clip-rule="evenodd" d="M15.7949 15L14.2588 19.769L15.1105 24.9856L14.5174 25.3252L15.3691 26.1123L14.6847 26.7142L15.6276 27.5785L15.0345 28.1032L16.4033 29.8318L22.8215 27.8409C25.9545 25.2943 27.5058 23.9979 27.445 23.9361C27.3841 23.8744 23.5059 20.8957 15.7949 15Z" fill="#8E5A30"/>
</svg>
