<svg width="24" height="25" viewBox="0 0 24 25" fill="none" xmlns="http://www.w3.org/2000/svg">
<g clip-path="url(#clip0_625_5284)">
<path d="M21.7556 10.9235L12.3849 2.6745C12.2582 2.56171 12.0964 2.49963 11.9289 2.49963C11.7614 2.49963 11.5996 2.56171 11.473 2.6745L2.24535 10.7987C2.13989 10.8913 2.06349 11.014 2.02584 11.1513C1.98819 11.2886 1.99097 11.4343 2.03384 11.5699C2.07671 11.7056 2.15773 11.8251 2.26665 11.9134C2.37556 12.0016 2.50748 12.0546 2.64568 12.0656C2.7374 12.0733 2.8297 12.0622 2.91721 12.0329C3.00471 12.0035 3.08569 11.9566 3.15544 11.8948L4.79687 10.4496V20.7792C4.79687 20.9704 4.87066 21.1537 5.002 21.2889C5.13334 21.424 5.31147 21.4999 5.49722 21.4999H18.5056C18.6913 21.4999 18.8695 21.424 19.0008 21.2889C19.1322 21.1537 19.2059 20.9704 19.2059 20.7792V10.5707L20.8474 12.0159C20.9886 12.1403 21.1721 12.202 21.3575 12.1872C21.5429 12.1724 21.715 12.0824 21.8359 11.9371C21.9568 11.7917 22.0167 11.6029 22.0023 11.4121C21.988 11.2213 21.9005 11.0442 21.7593 10.9198L21.7556 10.9235Z" fill="#00FFF4"/>
</g>
<defs>
<clipPath id="clip0_625_5284">
<rect width="20" height="19" fill="white" transform="translate(2 2.5)"/>
</clipPath>
</defs>
</svg>
