<svg width="24" height="25" viewBox="0 0 24 25" fill="none" xmlns="http://www.w3.org/2000/svg">
<g clip-path="url(#clip0_625_8075)">
<path d="M21.7556 10.7182L12.3849 2.46918C12.2582 2.35639 12.0964 2.29431 11.9289 2.29431C11.7614 2.29431 11.5996 2.35639 11.473 2.46918L2.24535 10.5934C2.13989 10.686 2.06349 10.8087 2.02584 10.946C1.98819 11.0833 1.99097 11.229 2.03384 11.3646C2.07671 11.5003 2.15773 11.6198 2.26665 11.708C2.37556 11.7963 2.50748 11.8493 2.64568 11.8603C2.7374 11.868 2.8297 11.8569 2.91721 11.8275C3.00471 11.7982 3.08569 11.7513 3.15544 11.6895L4.79687 10.2443V20.5739C4.79687 20.765 4.87066 20.9484 5.002 21.0835C5.13334 21.2187 5.31148 21.2946 5.49722 21.2946H18.5056C18.6913 21.2946 18.8695 21.2187 19.0008 21.0835C19.1322 20.9484 19.2059 20.765 19.2059 20.5739V10.3654L20.8474 11.8106C20.9886 11.935 21.1721 11.9966 21.3575 11.9819C21.5429 11.9671 21.715 11.8771 21.8359 11.7317C21.9568 11.5864 22.0167 11.3976 22.0023 11.2068C21.988 11.016 21.9005 10.8389 21.7593 10.7145L21.7556 10.7182ZM17.8016 9.13504V19.8532H6.19483V9.01022L11.9253 3.96602L17.8016 9.13504Z" fill="#8A919E"/>
</g>
<defs>
<clipPath id="clip0_625_8075">
<rect width="20" height="19" fill="white" transform="translate(2.00006 2.29468)"/>
</clipPath>
</defs>
</svg>
