<svg width="24" height="24" viewBox="0 0 24 24" fill="none" xmlns="http://www.w3.org/2000/svg">
<g clip-path="url(#clip0_9374_30861)">
<path d="M21.7555 10.4235L12.3847 2.1745C12.2581 2.06171 12.0963 1.99963 11.9288 1.99963C11.7613 1.99963 11.5995 2.06171 11.4728 2.1745L2.24523 10.2987C2.13977 10.3913 2.06337 10.514 2.02572 10.6513C1.98807 10.7886 1.99085 10.9343 2.03372 11.0699C2.07659 11.2056 2.15761 11.3251 2.26652 11.4134C2.37544 11.5016 2.50735 11.5546 2.64556 11.5656C2.73728 11.5733 2.82958 11.5622 2.91708 11.5329C3.00459 11.5035 3.08557 11.4566 3.15531 11.3948L4.79675 9.94962V20.2792C4.79675 20.4704 4.87054 20.6537 5.00188 20.7888C5.13322 20.924 5.31135 20.9999 5.4971 20.9999H18.5055C18.6912 20.9999 18.8694 20.924 19.0007 20.7888C19.132 20.6537 19.2058 20.4704 19.2058 20.2792V10.0707L20.8473 11.5159C20.9885 11.6403 21.172 11.702 21.3574 11.6872C21.5428 11.6724 21.7148 11.5824 21.8358 11.4371C21.9567 11.2917 22.0166 11.1029 22.0022 10.9121C21.9878 10.7213 21.9004 10.5442 21.7592 10.4198L21.7555 10.4235ZM17.8015 8.84036V19.5585H6.19471V8.71555L11.9251 3.67134L17.8015 8.84036Z" fill="#00FFF4"/>
</g>
<defs>
<clipPath id="clip0_9374_30861">
<rect width="20" height="19" fill="white" transform="translate(2 2)"/>
</clipPath>
</defs>
</svg>
