<svg width="24" height="24" viewBox="0 0 24 24" fill="none" xmlns="http://www.w3.org/2000/svg">
<path d="M21.66 17.0063C21.5153 16.9483 21.3546 16.8854 21.1743 16.8269C21.1497 16.8203 21.1258 16.8124 21.102 16.804C20.6013 16.6505 20.0463 16.5741 19.4856 16.5814C19.2084 16.5804 18.9317 16.5975 18.6605 16.6325C18.6923 16.5977 18.1929 16.6764 17.9193 16.786C17.4408 16.9751 16.8451 17.2109 15.7477 17.2109C14.6504 17.2109 14.0511 16.9751 13.5726 16.786C13.1275 16.61 12.7764 16.4706 12.0055 16.4706C11.2346 16.4706 10.8843 16.61 10.4391 16.786C9.95996 16.9751 9.36424 17.2109 8.26329 17.2109C7.16233 17.2109 6.56083 16.9751 6.0831 16.786C5.7096 16.6382 4.92496 16.5577 4.95464 16.5951C4.80889 16.5861 4.66249 16.5815 4.51599 16.5814C3.9504 16.5739 3.39058 16.6517 2.88664 16.808C2.86999 16.8137 2.85334 16.8185 2.83669 16.8234C2.65211 16.8832 2.4907 16.947 2.34014 17.0063C2.11286 17.0978 1.9898 17.2254 2.00066 17.3617C2.00495 17.4161 2.03286 17.4688 2.08156 17.5145C2.13026 17.5601 2.198 17.5971 2.27789 17.6217C2.47477 17.6824 2.71943 17.6657 2.94816 17.5751C3.39332 17.3991 3.74438 17.2597 4.51527 17.2597C5.28615 17.2597 5.63721 17.3987 6.08237 17.5751C6.56155 17.7642 7.15727 18 8.25822 18C9.35917 18 9.95489 17.7642 10.4341 17.5751C10.8792 17.3991 11.2303 17.2597 12.0005 17.2597C12.7706 17.2597 13.1224 17.3987 13.5676 17.5751C14.046 17.7642 14.6417 18 15.7427 18C16.8436 18 17.4394 17.7642 17.9142 17.5751C18.3593 17.3991 18.7104 17.2597 19.4806 17.2597C20.2507 17.2597 20.6018 17.3987 21.0469 17.5751C21.4168 17.7211 21.7621 17.6556 21.9156 17.5153C22.069 17.3749 22.0299 17.1524 21.66 17.0063Z" fill="#21FFFF"/>
<path d="M11.9989 5C10.7887 4.99942 9.59546 5.2908 8.51629 5.85044C7.43712 6.41007 6.5025 7.22215 5.78846 8.22059C5.07443 9.21903 4.60116 10.3756 4.40716 11.5963C4.21316 12.8169 4.30392 14.0671 4.67204 15.2451C4.71133 15.2451 6.10055 15.2678 6.93694 15.9473C7.34621 16.2816 7.72262 16.4706 8.4833 16.4706C9.24398 16.4706 9.59039 16.2399 10.0297 15.9473C10.5018 15.6334 11.0896 15.2422 12.176 15.2422C13.2624 15.2422 13.8502 15.6334 14.323 15.9473C14.7623 16.2392 15.1087 16.4706 15.8687 16.4706C16.6286 16.4706 16.9751 16.2399 17.4165 15.948C17.8579 15.6561 18.3907 15.3013 19.3307 15.2502C19.6973 14.0716 19.7868 12.8211 19.5919 11.6005C19.397 10.3798 18.9232 9.22333 18.209 8.22482C17.4948 7.22632 16.5603 6.41395 15.4813 5.85364C14.4023 5.29333 13.2092 5.00087 11.9989 5ZM12.516 13.7839L12.5331 14.0642C12.5423 14.1412 12.5354 14.2193 12.513 14.2933C12.4906 14.3674 12.4532 14.4358 12.4031 14.4941C12.3555 14.5435 12.2981 14.5821 12.2348 14.6072C12.1716 14.6324 12.1038 14.6436 12.036 14.6401H11.9817C11.9133 14.643 11.845 14.6312 11.7813 14.6053C11.7177 14.5794 11.6601 14.54 11.6124 14.4897C11.5626 14.4312 11.5255 14.3626 11.5036 14.2884C11.4817 14.2141 11.4754 14.136 11.4853 14.0591L11.5067 13.7445C11.2618 13.6773 11.0324 13.5607 10.8321 13.4017C10.6318 13.2426 10.4646 13.0443 10.3404 12.8183C10.3048 12.7596 10.2819 12.6939 10.273 12.6254C10.2642 12.557 10.2696 12.4874 10.2889 12.4213C10.3525 12.2293 10.5368 12.1439 10.5975 12.1162L10.6553 12.0899C10.9818 11.9396 11.1667 12.1629 11.2982 12.333C11.3889 12.4525 11.5052 12.5492 11.6382 12.6156C11.7712 12.682 11.9173 12.7164 12.0653 12.7162C12.4395 12.7162 12.6288 12.5789 12.6288 12.3074C12.6288 12.0885 12.4567 12.0031 11.9024 11.8527C11.2696 11.6819 10.4025 11.4469 10.4025 10.3091C10.4025 9.60181 10.8346 9.05295 11.5003 8.88216L11.4882 8.58292C11.4787 8.50605 11.4852 8.428 11.5074 8.3539C11.5296 8.27981 11.5668 8.21135 11.6167 8.15302C11.6643 8.10284 11.7217 8.06356 11.7853 8.03776C11.8488 8.01197 11.917 8.00026 11.9853 8.0034H12.0389C12.1072 8.00034 12.1755 8.01209 12.2391 8.03787C12.3028 8.06366 12.3604 8.1029 12.4081 8.15302C12.458 8.21152 12.4951 8.28013 12.5172 8.35435C12.5392 8.42857 12.5456 8.50671 12.536 8.58365L12.5145 8.9172C12.966 9.05733 13.3474 9.35512 13.5395 9.72735C13.578 9.79144 13.6018 9.86354 13.6094 9.93832C13.6169 10.0131 13.6079 10.0887 13.5831 10.1594C13.5546 10.2255 13.512 10.2843 13.4583 10.3313C13.4047 10.3783 13.3414 10.4123 13.2731 10.4309L13.1845 10.4609C12.8988 10.5587 12.7295 10.3835 12.5824 10.2295C12.3896 10.0266 12.2253 9.95142 11.9867 9.95142C11.7603 9.95142 11.491 10.0142 11.491 10.312C11.491 10.5806 11.7139 10.6696 12.2617 10.8229C12.8802 10.9951 13.7281 11.2309 13.7281 12.3118C13.7245 13.0928 13.2774 13.6299 12.516 13.7839Z" fill="#21FFFF"/>
</svg>
