<svg width="24" height="24" viewBox="0 0 24 24" fill="none" xmlns="http://www.w3.org/2000/svg">
<path d="M11.0713 14.1175L11.0472 14.4075C11.0366 14.4781 11.0439 14.5497 11.0684 14.6177C11.0928 14.6857 11.1341 14.7485 11.1893 14.8021C11.2422 14.8485 11.3063 14.8849 11.3771 14.9088C11.4479 14.9327 11.5239 14.9437 11.6001 14.9408H11.6599C11.7357 14.9433 11.8112 14.9324 11.8817 14.9088C11.9522 14.8851 12.016 14.8492 12.0691 14.8034C12.1243 14.7498 12.1656 14.687 12.1903 14.619C12.2151 14.551 12.2227 14.4795 12.2128 14.4088L12.1942 14.1504C13.0414 14.0084 13.5384 13.5132 13.5384 12.7919C13.5384 11.7956 12.5957 11.578 11.9076 11.4195C11.2988 11.2788 11.0534 11.1972 11.0534 10.9493C11.0534 10.6751 11.3531 10.6206 11.6048 10.6206C11.8734 10.6206 12.0536 10.6903 12.2679 10.877C12.4318 11.019 12.6166 11.1801 12.9381 11.0901L13.0368 11.0624C13.1126 11.0454 13.1829 11.014 13.2425 10.9708C13.302 10.9275 13.3493 10.8734 13.3808 10.8126C13.4087 10.7474 13.4189 10.6777 13.4106 10.6087C13.4022 10.5396 13.3756 10.4731 13.3326 10.4141C13.1191 10.0688 12.6904 9.79398 12.1872 9.66444L12.2113 9.35669C12.2216 9.28612 12.2143 9.21448 12.1896 9.14648C12.165 9.07848 12.1237 9.01567 12.0684 8.96215C12.0155 8.91587 11.9515 8.87963 11.8809 8.85582C11.8102 8.83202 11.7343 8.82119 11.6583 8.82406H11.5985C11.5225 8.82143 11.4466 8.83237 11.3758 8.85615C11.305 8.87994 11.241 8.91605 11.1877 8.96215C11.1327 9.01581 11.0916 9.07866 11.0672 9.14663C11.0427 9.2146 11.0353 9.28617 11.0456 9.35669L11.0674 9.63485C10.3265 9.79201 9.84582 10.2983 9.84582 10.95C9.84582 12.0021 10.8103 12.2158 11.5139 12.3736C12.1305 12.5117 12.3223 12.588 12.3223 12.7925C12.3223 13.0424 12.1119 13.1693 11.6956 13.1693C11.5307 13.1698 11.3679 13.1381 11.2198 13.0768C11.0717 13.0154 10.9422 12.926 10.8414 12.8155C10.6915 12.663 10.4849 12.4532 10.1223 12.592L10.0578 12.6163C9.99027 12.6419 9.78525 12.7208 9.71458 12.8977C9.69309 12.9586 9.68702 13.0227 9.69679 13.0857C9.70656 13.1487 9.73194 13.2092 9.77127 13.2633C9.90983 13.4719 10.0962 13.6549 10.3194 13.8015C10.5427 13.9482 10.7983 14.0557 11.0713 14.1175Z" fill="#21FFFF"/>
<path d="M21.66 16.4589C21.1816 16.1649 20.5859 15.7999 19.4849 15.7999C19.2076 15.7984 18.931 15.8249 18.6597 15.8791C19.3091 14.7627 19.6395 13.5065 19.6187 12.2335C19.5977 10.9605 19.2262 9.71452 18.5405 8.61762C17.8548 7.52072 16.8784 6.61057 15.7071 5.9764C14.5358 5.34222 13.2097 5.00579 11.8589 5.00007C10.508 4.99436 9.17881 5.31956 8.00149 5.94379C6.82417 6.56803 5.83916 7.46988 5.14302 8.56093C4.44689 9.65199 4.06352 10.8948 4.03049 12.1675C3.99747 13.4403 4.31592 14.6993 4.95464 15.8211C4.80889 15.8071 4.66249 15.8001 4.51599 15.7999C3.41504 15.7999 2.81932 16.1649 2.34014 16.4589C2.11286 16.6008 1.9898 16.7987 2.00066 17.0101C2.00495 17.0944 2.03286 17.1762 2.08156 17.247C2.13026 17.3178 2.198 17.3752 2.27789 17.4133C2.47477 17.5075 2.71943 17.4815 2.94816 17.3403C3.39332 17.0674 3.74438 16.8519 4.51527 16.8519C5.28615 16.8519 5.63721 17.0674 6.08237 17.341C6.56155 17.6343 7.15727 18 8.25822 18C9.35917 18 9.95489 17.6343 10.4341 17.341C10.8792 17.0681 11.2303 16.8519 12.0005 16.8519C12.7706 16.8519 13.1224 17.0674 13.5676 17.341C14.046 17.6343 14.6417 18 15.7427 18C16.8436 18 17.4394 17.6343 17.9142 17.3403C18.3593 17.0674 18.7104 16.8519 19.4806 16.8519C20.2507 16.8519 20.6018 17.0674 21.0469 17.341C21.4168 17.5675 21.7621 17.4658 21.9156 17.2482C22.069 17.0306 22.0299 16.6854 21.66 16.4589ZM6.81055 16.5326C6.79029 16.4979 6.76601 16.4654 6.73817 16.4357C5.89593 15.5054 5.35947 14.364 5.19435 13.151C5.02924 11.9381 5.24261 10.706 5.80841 9.60545C6.3742 8.50489 7.26791 7.5835 8.38031 6.95388C9.49271 6.32426 10.7756 6.01367 12.0723 6.06006C13.369 6.10646 14.6232 6.50784 15.6817 7.21515C16.7403 7.92246 17.5573 8.90506 18.0329 10.0429C18.5085 11.1807 18.6221 12.4245 18.3599 13.6222C18.0977 14.8199 17.4709 15.9196 16.5563 16.7871C16.5344 16.8083 16.5144 16.8311 16.4962 16.8553C16.2507 16.9222 15.996 16.9539 15.7405 16.9494C14.9711 16.9494 14.6193 16.7339 14.1741 16.461C13.6957 16.167 13.1 15.802 11.9983 15.802C10.8966 15.802 10.3016 16.167 9.82677 16.461C9.38161 16.7339 9.03055 16.9494 8.25967 16.9494C7.55827 16.9474 7.20359 16.7687 6.81055 16.5326Z" fill="#21FFFF"/>
</svg>
