<svg width="24" height="24" viewBox="0 0 24 24" fill="none" xmlns="http://www.w3.org/2000/svg">
<path d="M19.325 15.6185C18.6396 15.6189 17.9804 15.8837 17.4831 16.3583L15.6842 15.2221C15.8927 14.7331 15.9997 14.2063 15.9986 13.6742C15.9935 12.7238 15.6508 11.8065 15.0323 11.0881C14.4139 10.3697 13.5605 9.89759 12.6263 9.75695V8.30516C13.1138 8.18576 13.5581 7.93077 13.9084 7.56933C14.2587 7.20789 14.5009 6.75458 14.6073 6.2612C14.7136 5.76783 14.6799 5.25429 14.51 4.77929C14.34 4.30428 14.0406 3.88697 13.6461 3.57504C13.2516 3.26312 12.7778 3.06916 12.2789 3.01534C11.78 2.96151 11.2761 3.05 10.8248 3.27068C10.3736 3.49135 9.99308 3.83533 9.72689 4.26328C9.46071 4.69123 9.31955 5.1859 9.31955 5.69075C9.31816 6.31865 9.53589 6.92711 9.93477 7.41C10.3336 7.8929 10.8884 8.21957 11.5021 8.33305V9.75842C10.5678 9.8989 9.71422 10.371 9.09561 11.0894C8.477 11.8078 8.13416 12.7251 8.12904 13.6756C8.12794 14.1933 8.22911 14.706 8.42667 15.1839L6.53368 16.3803C6.09102 15.9483 5.51351 15.6836 4.89904 15.6311C4.28458 15.5786 3.67096 15.7415 3.16222 16.0921C2.65347 16.4428 2.2809 16.9597 2.10765 17.5552C1.9344 18.1507 1.97113 18.7881 2.21163 19.3595C2.45212 19.9308 2.88158 20.4009 3.4272 20.6901C3.97282 20.9793 4.60103 21.0697 5.20534 20.9461C5.80966 20.8224 6.35289 20.4924 6.74296 20.0118C7.13303 19.5312 7.34594 18.9297 7.34559 18.3092C7.34629 17.9709 7.28291 17.6357 7.15884 17.3213L9.00004 16.1565C9.36583 16.6149 9.82867 16.9854 10.3548 17.241C10.881 17.4966 11.4572 17.6309 12.0414 17.6341C12.6257 17.6372 13.2033 17.5092 13.7321 17.2593C14.261 17.0094 14.7278 16.6439 15.0984 16.1895L16.8492 17.2941C16.7179 17.6162 16.6507 17.9611 16.6515 18.3092C16.6515 18.8414 16.8083 19.3616 17.1022 19.8041C17.396 20.2466 17.8137 20.5915 18.3024 20.7951C18.791 20.9988 19.3287 21.0521 19.8475 20.9482C20.3662 20.8444 20.8427 20.5881 21.2167 20.2118C21.5907 19.8355 21.8454 19.3561 21.9486 18.8341C22.0518 18.3122 21.9988 17.7712 21.7964 17.2795C21.594 16.7878 21.2513 16.3676 20.8115 16.0719C20.3717 15.7763 19.8547 15.6185 19.3257 15.6185H19.325Z" fill="#21FFFF"/>
</svg>
