<svg width="15" height="14" viewBox="0 0 15 14" fill="none" xmlns="http://www.w3.org/2000/svg">
<path fill-rule="evenodd" clip-rule="evenodd" d="M10.9899 12.5715L9.15338 13.0645V12.4162L9.007 12.2677H7.95569V13.024V13.5574H9.08019L10.4642 12.9497L10.9899 12.5715Z" fill="#CDBDB2"/>
<path fill-rule="evenodd" clip-rule="evenodd" d="M5.00183 12.5715L6.79838 13.0645V12.4162L6.95141 12.2677H7.99607V13.024V13.5574H6.87157L5.48754 12.9497L5.00183 12.5715Z" fill="#CDBDB2"/>
<path fill-rule="evenodd" clip-rule="evenodd" d="M9.0072 11.1669L9.15359 12.4161L8.96726 12.2676H7.02433L6.7981 12.4161L6.95113 11.1669L7.25056 10.9779L8.74768 11.0117L9.0072 11.1669Z" fill="#393939"/>
<path fill-rule="evenodd" clip-rule="evenodd" d="M10.0188 2.69275L9.12055 4.81974L8.70803 11.0115H7.25081L6.79834 4.81974L5.97327 2.69275H10.0188Z" fill="#F89C35"/>
<path fill-rule="evenodd" clip-rule="evenodd" d="M13.9446 7.36547L14.9959 10.4445L12.3742 10.2892H10.6908V8.95901L10.764 6.23108L11.1433 6.52818L13.9446 7.36547Z" fill="#F89D35"/>
<path fill-rule="evenodd" clip-rule="evenodd" d="M11.9614 7.70959L8.89392 7.78384L9.23325 9.37738L10.6905 8.99925L11.9614 7.70959Z" fill="#D87C30"/>
<path fill-rule="evenodd" clip-rule="evenodd" d="M11.9612 7.74329L10.6903 8.95866V10.1741L11.9612 7.74329Z" fill="#EA8D3A"/>
<path fill-rule="evenodd" clip-rule="evenodd" d="M10.6905 8.99915L9.1934 9.37723L8.70764 11.0113L9.04701 11.2004L10.6905 10.2145V8.99915Z" fill="#F89D35"/>
<path fill-rule="evenodd" clip-rule="evenodd" d="M10.6909 10.215L10.9903 12.5716L9.00745 11.1671L10.6909 10.215Z" fill="#EB8F35"/>
<path fill-rule="evenodd" clip-rule="evenodd" d="M8.8951 7.78406L8.70898 11.0116L9.26732 9.36409L8.8951 7.78406Z" fill="#EA8E3A"/>
<path fill-rule="evenodd" clip-rule="evenodd" d="M12.4141 10.2555L10.6908 10.215L10.9902 12.5715L12.4141 10.2555Z" fill="#D87C30"/>
<path fill-rule="evenodd" clip-rule="evenodd" d="M14.1711 13.5978L10.9905 12.5715L12.4144 10.2554L14.9961 10.4445L14.1711 13.5978Z" fill="#EB8F35"/>
<path fill-rule="evenodd" clip-rule="evenodd" d="M9.12015 4.81995L10.7304 6.19063L11.9614 7.70989L8.89392 7.82469L9.12015 4.81995Z" fill="#E8821E"/>
<path fill-rule="evenodd" clip-rule="evenodd" d="M10.9903 12.5714L9.00745 11.1669L9.15383 12.3823V13.0643L10.5046 12.8009L10.9903 12.5714Z" fill="#DFCEC3"/>
<path fill-rule="evenodd" clip-rule="evenodd" d="M5.00183 12.5714L6.95141 11.1669L6.79838 12.3823V13.0643L5.45429 12.8009L5.00183 12.5714Z" fill="#DFCEC3"/>
<path fill-rule="evenodd" clip-rule="evenodd" d="M9.71977 8.46588L9.30725 9.34368L10.7644 8.95877L9.71977 8.46588Z" fill="#393939"/>
<path fill-rule="evenodd" clip-rule="evenodd" d="M14.2115 0.910278L9.12122 4.81981L9.97959 2.69287L14.2115 0.910278Z" fill="#E88F35"/>
<path fill-rule="evenodd" clip-rule="evenodd" d="M14.2108 0.910278L14.8829 2.99671L14.5102 5.27897L14.7697 5.42754L14.3971 5.7719L14.6965 6.03523L14.284 6.41336L14.5435 6.64291L13.9446 7.39917L11.1367 6.52816C9.766 5.41402 9.08731 4.84685 9.11391 4.81981C9.14056 4.79282 10.8439 3.48964 14.2108 0.910278Z" fill="#8E5A30"/>
<path fill-rule="evenodd" clip-rule="evenodd" d="M2.04728 7.36535L0.995972 10.4444L3.6176 10.2891H5.30105V8.95889L5.22785 6.23096L4.85524 6.52806L2.04728 7.36535Z" fill="#F89D35"/>
<path fill-rule="evenodd" clip-rule="evenodd" d="M4.03064 7.70972L7.09807 7.78396L6.7654 9.37751L5.30153 8.99938L4.03064 7.70972Z" fill="#D87C30"/>
<path fill-rule="evenodd" clip-rule="evenodd" d="M4.03064 7.74329L5.30153 8.95866V10.1741L4.03064 7.74329Z" fill="#EA8D3A"/>
<path fill-rule="evenodd" clip-rule="evenodd" d="M5.30139 8.99915L6.79851 9.37723L7.28427 11.0113L6.95155 11.2004L5.30139 10.2145V8.99915Z" fill="#F89D35"/>
<path fill-rule="evenodd" clip-rule="evenodd" d="M5.3013 10.215L5.00183 12.5716L6.95146 11.2008L5.3013 10.215Z" fill="#EB8F35"/>
<path fill-rule="evenodd" clip-rule="evenodd" d="M7.097 7.78406L7.28311 11.0116L6.72473 9.36409L7.097 7.78406Z" fill="#EA8E3A"/>
<path fill-rule="evenodd" clip-rule="evenodd" d="M3.57837 10.2555L5.30176 10.215L5.00234 12.5716L3.57837 10.2555Z" fill="#D87C30"/>
<path fill-rule="evenodd" clip-rule="evenodd" d="M1.82105 13.5978L5.00162 12.5715L3.5777 10.2554L0.995972 10.4445L1.82105 13.5978Z" fill="#EB8F35"/>
<path fill-rule="evenodd" clip-rule="evenodd" d="M6.87184 4.81995L5.26163 6.19063L4.03064 7.70989L7.09807 7.82469L6.87184 4.81995Z" fill="#E8821E"/>
<path fill-rule="evenodd" clip-rule="evenodd" d="M6.27257 8.46588L6.68508 9.34368L5.22791 8.95877L6.27257 8.46588Z" fill="#393939"/>
<path fill-rule="evenodd" clip-rule="evenodd" d="M1.78162 0.910278L6.87183 4.81981L6.01345 2.69287L1.78162 0.910278Z" fill="#E88F35"/>
<path fill-rule="evenodd" clip-rule="evenodd" d="M1.78105 0.910278L1.10901 2.99671L1.48163 5.27897L1.22215 5.42754L1.59476 5.7719L1.29534 6.03523L1.70786 6.41336L1.44838 6.64291L2.04722 7.39917L4.85518 6.52816C6.22586 5.41402 6.90456 4.84685 6.87796 4.81981C6.85131 4.79282 5.1546 3.48964 1.78105 0.910278Z" fill="#8E5A30"/>
</svg>
