<svg width="53" height="53" viewBox="0 0 53 53" fill="none" xmlns="http://www.w3.org/2000/svg">
<path fill-rule="evenodd" clip-rule="evenodd" d="M22.3042 33.7958C22.0136 33.5052 21.8503 33.111 21.8503 32.7C21.8503 32.289 22.0136 31.8948 22.3042 31.6041L27.4083 26.5L22.3042 21.3958C22.0218 21.1035 21.8656 20.712 21.8691 20.3056C21.8726 19.8992 22.0357 19.5104 22.323 19.223C22.6104 18.9356 22.9992 18.7726 23.4056 18.7691C23.812 18.7656 24.2035 18.9218 24.4959 19.2041L30.6959 25.4041C30.9864 25.6948 31.1497 26.089 31.1497 26.5C31.1497 26.911 30.9864 27.3052 30.6959 27.5958L24.4959 33.7958C24.2052 34.0864 23.811 34.2497 23.4 34.2497C22.989 34.2497 22.5948 34.0864 22.3042 33.7958Z" fill="white"/>
</svg>
