<svg
    width="11"
    height="7"
    viewBox="0 0 11 7"
    fill="none"
    xmlns="http://www.w3.org/2000/svg"
>
    <path fillRule="evenodd" clipRule="evenodd" d="M0.292787 1.29294C0.480314 1.10547 0.734622 1.00015 0.999786 1.00015C1.26495 1.00015 1.51926 1.10547 1.70679 1.29294L4.99979 4.58594L8.29279 1.29294C8.38503 1.19743 8.49538 1.12125 8.61738 1.06884C8.73939 1.01643 8.87061 0.988843 9.00339 0.98769C9.13616 0.986536 9.26784 1.01184 9.39074 1.06212C9.51364 1.1124 9.62529 1.18665 9.71918 1.28054C9.81307 1.37444 9.88733 1.48609 9.93761 1.60899C9.98789 1.73188 10.0132 1.86356 10.012 1.99634C10.0109 2.12912 9.9833 2.26034 9.93089 2.38234C9.87848 2.50435 9.8023 2.61469 9.70679 2.70694L5.70679 6.70694C5.51926 6.89441 5.26495 6.99973 4.99979 6.99973C4.73462 6.99973 4.48031 6.89441 4.29279 6.70694L0.292787 2.70694C0.105316 2.51941 0 2.2651 0 1.99994C0 1.73478 0.105316 1.48047 0.292787 1.29294Z" fill="white" />
</svg>