<svg width="13" height="12" viewBox="0 0 13 12" fill="none" xmlns="http://www.w3.org/2000/svg">
<path d="M9.80998 3.66597C9.57011 3.51374 9.25832 3.51374 8.99448 3.66597L7.12361 4.83299L5.85241 5.5941L3.98155 6.7611C3.7417 6.91333 3.42989 6.91333 3.16605 6.7611L1.67897 5.84779C1.43911 5.69556 1.27122 5.41648 1.27122 5.11206V3.31079C1.27122 3.00634 1.41513 2.72727 1.67897 2.57506L3.14207 1.68711C3.38192 1.53489 3.69373 1.53489 3.95756 1.68711L5.42068 2.57506C5.6605 2.72727 5.82843 3.00634 5.82843 3.31079V4.47779L7.09964 3.69134V2.52431C7.09964 2.21988 6.95573 1.94081 6.69189 1.78859L3.98155 0.114165C3.7417 -0.038055 3.42989 -0.038055 3.16605 0.114165L0.407749 1.78859C0.143911 1.94081 0 2.21988 0 2.52431V5.89852C0 6.20294 0.143911 6.48202 0.407749 6.63425L3.16605 8.30868C3.4059 8.46091 3.71771 8.46091 3.98155 8.30868L5.85241 7.16702L7.12361 6.38056L8.99448 5.23891C9.23434 5.08668 9.54613 5.08668 9.80998 5.23891L11.273 6.12687C11.5129 6.27906 11.6808 6.55814 11.6808 6.8626V8.66387C11.6808 8.96829 11.5369 9.24737 11.273 9.3996L9.80998 10.3129C9.57011 10.4651 9.25832 10.4651 8.99448 10.3129L7.53136 9.42494C7.2915 9.27276 7.12361 8.99368 7.12361 8.68921V7.52222L5.85241 8.30868V9.47572C5.85241 9.78014 5.99632 10.0592 6.26016 10.2114L9.01845 11.8858C9.25832 12.0381 9.57011 12.0381 9.83395 11.8858L12.5922 10.2114C12.8321 10.0592 13 9.78014 13 9.47572V6.10148C13 5.79706 12.8561 5.51799 12.5922 5.36575L9.80998 3.66597Z" fill="white"/>
</svg>
