<svg width="28" height="24" viewBox="0 0 28 24" fill="none" xmlns="http://www.w3.org/2000/svg">
<path d="M21.1292 7.33193C20.6126 7.02749 19.941 7.02749 19.3727 7.33193L15.3432 9.66597L12.6052 11.1882L8.57565 13.5222C8.05905 13.8267 7.38746 13.8267 6.81919 13.5222L3.61624 11.6956C3.09963 11.3911 2.73801 10.833 2.73801 10.2241V6.62157C2.73801 6.01269 3.04798 5.45455 3.61624 5.15011L6.76753 3.37421C7.28413 3.06977 7.95572 3.06977 8.52398 3.37421L11.6753 5.15011C12.1918 5.45455 12.5535 6.01269 12.5535 6.62157V8.95558L15.2915 7.38267V5.04863C15.2915 4.43975 14.9816 3.88161 14.4133 3.57717L8.57565 0.22833C8.05905 -0.07611 7.38746 -0.07611 6.81919 0.22833L0.878229 3.57717C0.309963 3.88161 0 4.43975 0 5.04863V11.797C0 12.4059 0.309963 12.964 0.878229 13.2685L6.81919 16.6174C7.33579 16.9218 8.00738 16.9218 8.57565 16.6174L12.6052 14.334L15.3432 12.7611L19.3727 10.4778C19.8893 10.1734 20.5609 10.1734 21.1292 10.4778L24.2804 12.2537C24.797 12.5581 25.1586 13.1163 25.1586 13.7252V17.3277C25.1586 17.9366 24.8487 18.4947 24.2804 18.7992L21.1292 20.6258C20.6126 20.9303 19.941 20.9303 19.3727 20.6258L16.2214 18.8499C15.7048 18.5455 15.3432 17.9874 15.3432 17.3784V15.0444L12.6052 16.6174V18.9514C12.6052 19.5603 12.9151 20.1184 13.4834 20.4229L19.4244 23.7717C19.941 24.0761 20.6126 24.0761 21.1808 23.7717L27.1218 20.4229C27.6384 20.1184 28 19.5603 28 18.9514V12.203C28 11.5941 27.69 11.036 27.1218 10.7315L21.1292 7.33193Z" fill="white"/>
</svg>
