<svg width="24" height="24" viewBox="0 0 24 24" fill="none" xmlns="http://www.w3.org/2000/svg">
<path d="M16.1732 13.0694H15.1727C14.2433 13.0691 13.3459 13.4141 12.6495 14.0394V12.1158C13.9085 11.9483 15.0575 11.3004 15.8635 10.3037C16.6695 9.30693 17.072 8.03602 16.9894 6.74883C16.9067 5.46165 16.3451 4.25462 15.4185 3.37269C14.4919 2.49076 13.2697 2 12 2C10.7303 2 9.50807 2.49076 8.58146 3.37269C7.65486 4.25462 7.09325 5.46165 7.01061 6.74883C6.92797 8.03602 7.33048 9.30693 8.13647 10.3037C8.94246 11.3004 10.0915 11.9483 11.3505 12.1158V14.0394C10.6541 13.4141 9.75668 13.0691 8.82727 13.0694H7.82679C7.65485 13.0699 7.49008 13.1395 7.36858 13.2631C7.24707 13.3867 7.17873 13.5541 7.17852 13.7288V16.1096C7.1798 17.1387 7.58284 18.1253 8.29924 18.8529C9.01564 19.5806 9.98689 19.9898 10.9999 19.9909H11.3505V21.3406C11.3505 21.5155 11.4189 21.6832 11.5406 21.8069C11.6624 21.9305 11.8275 22 11.9996 22C12.1717 22 12.3368 21.9305 12.4586 21.8069C12.5803 21.6832 12.6487 21.5155 12.6487 21.3406V19.9884H13.0009C14.0136 19.9876 14.9847 19.5788 15.7012 18.8516C16.4177 18.1245 16.8212 17.1384 16.8231 16.1096V13.7288C16.8229 13.5539 16.7543 13.3861 16.6325 13.2625C16.5106 13.1389 16.3454 13.0694 16.1732 13.0694Z" fill="#00FFF4"/>
</svg>
