<svg width="24" height="24" viewBox="0 0 24 24" fill="none" xmlns="http://www.w3.org/2000/svg">
<g clip-path="url(#clip0_9385_30276)">
<path d="M20.1611 2H12.8904C12.4028 2.0006 11.9353 2.19872 11.5905 2.55088C11.2458 2.90304 11.0519 3.38047 11.0515 3.8784C11.0515 4.0381 11.0515 4.18259 11.0515 4.30655C10.6332 4.21757 10.1974 4.28135 9.8204 4.48679L3.39877 7.97209C2.96811 8.20601 2.64606 8.605 2.50346 9.08133C2.36086 9.55765 2.40937 10.0723 2.63833 10.5121L8.10737 21.0038C8.26405 21.3041 8.4976 21.5555 8.78313 21.7311C9.06866 21.9067 9.39548 21.9999 9.72879 22.0008C9.82027 22.0007 9.91162 21.9938 10.0021 21.9802C10.2081 21.9482 10.4073 21.8808 10.5913 21.781L17.0099 18.2949C17.2925 18.1423 17.5308 17.9165 17.7011 17.6401H20.1589C20.6464 17.6401 21.1141 17.4427 21.4592 17.0911C21.8044 16.7396 21.9989 16.2626 22 15.7648V3.8784C21.9995 3.38053 21.8055 2.90322 21.4608 2.55111C21.1161 2.19899 20.6487 2.0008 20.1611 2V2ZM17.9841 16.545C17.9707 16.2686 17.8978 15.9985 17.7703 15.7541L16.6815 13.6651L19.4067 9.93871C19.4759 9.8439 19.5133 9.72881 19.5133 9.61056C19.5133 9.49231 19.4759 9.37721 19.4067 9.28241L16.7142 5.6123C16.6645 5.54489 16.6001 5.49011 16.5262 5.45225C16.4523 5.41438 16.3709 5.39446 16.2882 5.39401C16.2055 5.39357 16.1239 5.41263 16.0496 5.4497C15.9753 5.48677 15.9104 5.54086 15.8599 5.60774L13.849 8.22229L12.305 5.26248C12.2494 5.15749 12.1841 5.05818 12.1099 4.96589C12.1188 4.70733 12.1233 4.3499 12.1233 3.8822C12.1235 3.67445 12.2044 3.47525 12.3482 3.32828C12.492 3.1813 12.687 3.09854 12.8904 3.09814H20.1611C20.3646 3.09854 20.5596 3.1813 20.7034 3.32828C20.8472 3.47525 20.9281 3.67445 20.9283 3.8822V15.7648C20.9281 15.9725 20.8472 16.1716 20.7034 16.3184C20.5595 16.4653 20.3645 16.5479 20.1611 16.5481L17.9841 16.545ZM16.2808 6.84657L18.3111 9.60485L16.1199 12.586L14.3972 9.2786L16.2808 6.84657ZM11.3584 5.77657L16.8237 16.2713C16.8711 16.3621 16.9005 16.4616 16.9102 16.5641C16.9199 16.6666 16.9098 16.77 16.8803 16.8685C16.8508 16.9669 16.8026 17.0585 16.7385 17.1379C16.6743 17.2174 16.5955 17.2831 16.5064 17.3314L10.0878 20.8167C9.99879 20.8651 9.90133 20.8951 9.80096 20.905C9.7006 20.9149 9.59931 20.9046 9.50288 20.8745C9.40645 20.8444 9.31678 20.7952 9.23899 20.7297C9.1612 20.6642 9.09682 20.5837 9.04953 20.4927L3.58497 9.99802C3.53758 9.90722 3.50819 9.80776 3.49849 9.70534C3.48879 9.60292 3.49896 9.49955 3.52843 9.40115C3.5579 9.30276 3.60609 9.21126 3.67024 9.1319C3.73438 9.05254 3.81322 8.98688 3.90225 8.93867L10.3209 5.4526C10.3973 5.41132 10.4798 5.3833 10.5652 5.36971C10.7224 5.34556 10.883 5.3717 11.0251 5.44456C11.1671 5.51741 11.2835 5.6334 11.3584 5.77657Z" fill="#00FFF4"/>
<path d="M7.95841 9.34099C7.88502 9.38088 7.82172 9.43764 7.7735 9.5068C7.72529 9.57596 7.69348 9.65562 7.6806 9.73949L6.99018 14.2667C6.97242 14.3832 6.99178 14.5025 7.04541 14.6069C7.09905 14.7114 7.18412 14.7955 7.28809 14.8469L11.351 16.7922C11.422 16.8263 11.4996 16.8439 11.5781 16.8439C11.605 16.8442 11.6319 16.8421 11.6586 16.8379C11.7187 16.8288 11.7769 16.8092 11.8306 16.7801C11.9038 16.74 11.967 16.6832 12.0152 16.614C12.0634 16.5449 12.0953 16.4653 12.1084 16.3816L12.7996 11.8536C12.8164 11.7378 12.7966 11.6195 12.743 11.5159C12.6895 11.4124 12.6049 11.329 12.5017 11.2779L8.43657 9.32882C8.36135 9.29305 8.27904 9.27553 8.19609 9.27764C8.11314 9.27975 8.03179 9.30143 7.95841 9.34099ZM11.6824 12.0909L11.161 15.491L8.10737 14.0301L8.62873 10.6293L11.6824 12.0909Z" fill="#00FFF4"/>
</g>
<defs>
<clipPath id="clip0_9385_30276">
<rect width="20" height="20" fill="white" transform="translate(2 2)"/>
</clipPath>
</defs>
</svg>
