<svg width="24" height="24" viewBox="0 0 24 24" fill="none" xmlns="http://www.w3.org/2000/svg">
<path d="M17.0059 15.7535L11.6628 5.2593C11.4384 4.82003 11.0563 4.49162 10.6003 4.34607C10.1444 4.20052 9.65177 4.24972 9.23049 4.48288L2.9545 7.97183C2.74586 8.0875 2.5611 8.24498 2.41079 8.43528C2.26048 8.62557 2.14757 8.84494 2.07851 9.08083C2.00946 9.31673 1.98561 9.56452 2.00834 9.81005C2.03107 10.0556 2.09992 10.294 2.21097 10.5117L7.55408 21.006C7.7082 21.3063 7.93745 21.5573 8.2174 21.7324C8.49736 21.9074 8.81753 21.9998 9.14383 21.9999C9.23304 21.9998 9.32212 21.993 9.41037 21.9793C9.61182 21.9475 9.80661 21.8802 9.98641 21.7801L16.2624 18.2942C16.4711 18.1786 16.6559 18.0212 16.8063 17.8309C16.9567 17.6406 17.0696 17.4212 17.1387 17.1853C17.2077 16.9494 17.2316 16.7015 17.2088 16.456C17.186 16.2104 17.1171 15.972 17.0059 15.7543V15.7535ZM12.1471 11.8532L11.4713 16.3809C11.4586 16.4647 11.4274 16.5443 11.3803 16.6135C11.3332 16.6826 11.2713 16.7394 11.1997 16.7794C11.1472 16.8087 11.0903 16.8283 11.0314 16.8372C11.0057 16.8415 10.9796 16.8435 10.9535 16.8433C10.878 16.8427 10.8034 16.8251 10.735 16.7915L6.75884 14.8463C6.65629 14.7957 6.57211 14.712 6.51884 14.6074C6.46556 14.5029 6.44604 14.3832 6.46317 14.2661L7.13898 9.73912C7.15162 9.6552 7.18278 9.57551 7.23 9.50635C7.27722 9.43718 7.33921 9.38043 7.41105 9.3406C7.4829 9.30076 7.56264 9.27893 7.64396 9.27682C7.72528 9.27472 7.80595 9.2924 7.8796 9.32847L11.8522 11.2775C11.9539 11.3279 12.0374 11.411 12.0905 11.5146C12.1436 11.6182 12.1634 11.7369 12.1471 11.8532Z" fill="#00FFF4"/>
<path d="M20.2019 2H13.0936C12.6691 2.00058 12.2584 2.15768 11.934 2.44359C11.6095 2.72949 11.3922 3.12584 11.3203 3.56273C11.3385 3.57566 11.356 3.5863 11.3742 3.59999C11.7035 3.84676 11.9787 4.16377 12.1818 4.53002L14.0818 8.14977L15.9978 5.60758C16.0471 5.5407 16.1106 5.48662 16.1832 5.44955C16.2558 5.41248 16.3357 5.39342 16.4165 5.39386C16.4974 5.3943 16.577 5.41423 16.6493 5.45209C16.7215 5.48996 16.7844 5.54473 16.8331 5.61214L19.4642 9.27828C19.5319 9.37308 19.5685 9.48817 19.5685 9.60641C19.5685 9.72466 19.5319 9.83974 19.4642 9.93455L16.9023 13.5216L17.7762 15.187C17.8796 15.3581 18.326 16.4676 18.0354 17.5566C18.0281 17.5839 18.0194 17.6113 18.0099 17.6387H20.2019C20.6781 17.6381 21.1347 17.4405 21.4717 17.0892C21.8087 16.7378 21.9986 16.2614 22 15.7642V3.87831C21.9996 3.38041 21.81 2.903 21.473 2.55086C21.1359 2.19872 20.6788 2.0006 20.2019 2Z" fill="#00FFF4"/>
</svg>
