<svg width="24" height="24" viewBox="0 0 24 24" fill="none" xmlns="http://www.w3.org/2000/svg">
<path d="M19.325 15.6185C18.6398 15.6189 17.9808 15.8837 17.4838 16.3583L15.6849 15.2222C15.8929 14.733 15.9996 14.2063 15.9986 13.6742C15.9935 12.7238 15.6508 11.8066 15.0323 11.0882C14.4139 10.3699 13.5605 9.8977 12.6263 9.75706V8.30528C13.1138 8.18601 13.5583 7.93112 13.9087 7.56974C14.2591 7.20836 14.5014 6.75507 14.6079 6.26168C14.7144 5.76829 14.6807 5.25472 14.5108 4.77965C14.3409 4.30459 14.0416 3.88721 13.6471 3.57522C13.2525 3.26323 12.7787 3.06921 12.2798 3.01535C11.7809 2.9615 11.2769 3.04997 10.8256 3.27065C10.3743 3.49133 9.99379 3.83533 9.72759 4.26332C9.46139 4.6913 9.32024 5.18601 9.32028 5.6909C9.31871 6.31872 9.53629 6.92717 9.93505 7.41008C10.3338 7.89298 10.8884 8.21968 11.5021 8.33317V9.75853C10.5678 9.89901 9.71422 10.3711 9.09561 11.0895C8.477 11.8079 8.13416 12.7252 8.12904 13.6757C8.12794 14.1933 8.22911 14.706 8.42667 15.184L6.53368 16.3804C6.09102 15.9484 5.51351 15.6837 4.89904 15.6312C4.28458 15.5786 3.67096 15.7415 3.16222 16.0922C2.65347 16.4429 2.2809 16.9597 2.10765 17.5552C1.9344 18.1507 1.97113 18.7882 2.21163 19.3595C2.45212 19.9309 2.88158 20.401 3.4272 20.6901C3.97282 20.9793 4.60103 21.0697 5.20534 20.9461C5.80966 20.8224 6.35289 20.4924 6.74296 20.0118C7.13303 19.5312 7.34594 18.9297 7.34559 18.3092C7.34629 17.971 7.28291 17.6357 7.15884 17.3213L9.00004 16.1565C9.36583 16.6149 9.82867 16.9854 10.3548 17.241C10.881 17.4966 11.4572 17.6309 12.0414 17.6341C12.6257 17.6373 13.2033 17.5092 13.7321 17.2593C14.261 17.0094 14.7278 16.6439 15.0984 16.1895L16.8492 17.2942C16.7179 17.6162 16.6507 17.9611 16.6515 18.3092C16.6515 18.8414 16.8083 19.3616 17.1022 19.8041C17.396 20.2466 17.8137 20.5915 18.3024 20.7951C18.791 20.9988 19.3287 21.0521 19.8475 20.9482C20.3662 20.8444 20.8427 20.5882 21.2167 20.2118C21.5907 19.8355 21.8454 19.3561 21.9486 18.8342C22.0518 18.3122 21.9988 17.7712 21.7964 17.2795C21.594 16.7879 21.2513 16.3676 20.8115 16.072C20.3717 15.7763 19.8547 15.6185 19.3257 15.6185H19.325ZM20.8752 18.3092C20.8752 18.6177 20.7842 18.9192 20.6139 19.1757C20.4436 19.4322 20.2015 19.6321 19.9182 19.7502C19.635 19.8682 19.3233 19.8991 19.0226 19.8389C18.7219 19.7788 18.4457 19.6302 18.2289 19.4121C18.0121 19.194 17.8645 18.916 17.8047 18.6135C17.7449 18.311 17.7756 17.9974 17.8929 17.7124C18.0102 17.4274 18.2089 17.1838 18.4638 17.0124C18.7187 16.841 19.0184 16.7495 19.325 16.7495C19.736 16.7501 20.1299 16.9146 20.4205 17.207C20.7111 17.4994 20.8746 17.8958 20.8752 18.3092ZM12.0638 16.5051C11.5079 16.5051 10.9645 16.3393 10.5022 16.0285C10.04 15.7177 9.67975 15.276 9.46704 14.7592C9.25433 14.2424 9.19871 13.6738 9.30722 13.1252C9.41573 12.5766 9.6835 12.0727 10.0766 11.6772C10.4698 11.2818 10.9707 11.0125 11.5159 10.9035C12.0612 10.7944 12.6264 10.8505 13.1399 11.0647C13.6535 11.2788 14.0924 11.6414 14.4012 12.1066C14.7099 12.5717 14.8746 13.1186 14.8745 13.6779C14.8737 14.4276 14.5773 15.1464 14.0504 15.6765C13.5234 16.2065 12.809 16.5046 12.0638 16.5051ZM11.9945 4.13342C12.3012 4.13342 12.601 4.22495 12.856 4.39643C13.1109 4.56791 13.3096 4.81163 13.4269 5.09675C13.5441 5.38187 13.5747 5.69558 13.5147 5.99819C13.4547 6.3008 13.3069 6.5787 13.0899 6.79674C12.8729 7.01477 12.5964 7.16314 12.2956 7.22307C11.9948 7.28301 11.683 7.2518 11.3998 7.13342C11.1166 7.01503 10.8746 6.81478 10.7046 6.55801C10.5345 6.30123 10.444 5.99947 10.4444 5.6909C10.445 5.27743 10.6085 4.88105 10.8991 4.58868C11.1896 4.29631 11.5836 4.1318 11.9945 4.13122V4.13342ZM6.22147 18.3092C6.22147 18.6177 6.13055 18.9192 5.96022 19.1757C5.78989 19.4322 5.5478 19.6321 5.26455 19.7502C4.9813 19.8682 4.66962 19.8991 4.36892 19.8389C4.06822 19.7788 3.79202 19.6302 3.57523 19.4121C3.35844 19.194 3.2108 18.916 3.15099 18.6135C3.09118 18.311 3.12187 17.9974 3.2392 17.7124C3.35653 17.4274 3.55521 17.1838 3.81013 17.0124C4.06505 16.841 4.36475 16.7495 4.67134 16.7495C5.08234 16.7499 5.4764 16.9144 5.76702 17.2068C6.05764 17.4992 6.22108 17.8957 6.22147 18.3092Z" fill="#21FFFF"/>
</svg>
