<svg width="134" height="25" viewBox="0 0 134 25" fill="none" xmlns="http://www.w3.org/2000/svg">
    <path d="M18.0658 23.5693C22.2417 21.5852 25.1288 17.3287 25.1288 12.3978C25.1288 7.46669 22.2415 3.20999 18.0653 1.22599C13.8891 3.20999 11.0019 7.46669 11.0019 12.3978C11.0019 17.3287 13.889 21.5854 18.065 23.5694C16.4595 24.3321 14.6634 24.7588 12.7677 24.7588C5.94065 24.7588 0.40625 19.2244 0.40625 12.3974C0.40625 5.57029 5.94065 0.0358887 12.7677 0.0358887C14.6637 0.0358887 16.46 0.462787 18.0658 1.22569C19.6715 0.462887 21.4678 0.036087 23.3637 0.036087C30.1908 0.036087 35.7252 5.57049 35.7252 12.3975C35.7252 19.2246 30.1908 24.759 23.3637 24.759C21.4678 24.759 19.6715 24.3321 18.0658 23.5693Z" fill="#00FFFF" />
    <path d="M50.668 22.212H63.6051V19.1966H54.0401V2.30376H50.668V22.212ZM78.4917 7.81577H75.2487V17.2836C74.8927 18.7102 73.6607 19.5857 72.2657 19.5857C70.4177 19.5857 69.5747 18.4184 69.5747 16.6351V7.81577H66.3327V17.1863C66.3327 20.3639 68.1157 22.5363 71.3907 22.5363C73.0767 22.5363 74.4707 21.7581 75.2487 20.8502V22.212H78.4917V7.81577ZM82.5177 22.212H85.7597V12.7443C86.1167 11.3176 87.3807 10.4422 88.7747 10.4422C90.6237 10.4422 91.4987 11.6094 91.4987 13.3927V22.212H94.7407V12.8415C94.7407 9.66396 92.9257 7.49157 89.6507 7.49157C87.9647 7.49157 86.5377 8.26977 85.7597 9.17757V7.81577H82.5177V22.212ZM109.66 22.212V12.7767C109.66 9.50186 107.52 7.49157 103.889 7.49157C100.938 7.49157 98.6687 9.33967 98.2467 11.804H101.36C101.716 10.7988 102.527 10.2476 103.824 10.2476C105.672 10.2476 106.58 11.3824 106.58 12.8415V14.0088C105.996 13.5873 104.537 13.1333 103.24 13.1333C100.063 13.1333 97.6307 15.0463 97.6307 17.7699C97.6307 20.7205 100.063 22.4714 103.013 22.4714C104.635 22.4714 106.094 21.8878 106.58 21.4014V22.212H109.66ZM106.58 18.386C106.223 19.2939 104.926 19.8451 103.629 19.8451C102.17 19.8451 100.646 19.229 100.646 17.7699C100.646 16.3433 102.17 15.7272 103.629 15.7272C104.926 15.7272 106.223 16.2785 106.58 17.1863V18.386ZM117.052 22.212V14.1385H125.774V11.1879H117.052V5.28676H126.39V2.30376H113.68V22.212H117.052ZM132.781 7.81577H129.539V22.212H132.781V7.81577ZM133.17 3.47096C133.17 2.36856 132.23 1.49316 131.16 1.49316C130.09 1.49316 129.149 2.36856 129.149 3.47096C129.149 4.57336 130.09 5.44886 131.16 5.44886C132.23 5.44886 133.17 4.57336 133.17 3.47096Z" fill="white" />
</svg>