<svg width="27" height="20" viewBox="0 0 27 20" fill="none" xmlns="http://www.w3.org/2000/svg">
<path fill-rule="evenodd" clip-rule="evenodd" d="M13.6789 18.2693C16.77 16.8008 18.9071 13.65 18.9071 10.0001C18.9071 6.35013 16.7699 3.19932 13.6787 1.73079C10.5874 3.19932 8.45026 6.35013 8.45026 10.0001C8.45026 13.65 10.5874 16.8008 13.6785 18.2693C12.49 18.8339 11.1606 19.1498 9.75731 19.1498C4.70397 19.1498 0.607422 15.0532 0.607422 9.99987C0.607422 4.94652 4.70397 0.849976 9.75731 0.849976C11.1607 0.849976 12.4904 1.16594 13.6789 1.73061C14.8674 1.16601 16.197 0.850097 17.6003 0.850097C22.6536 0.850097 26.7502 4.94664 26.7502 9.99999C26.7502 15.0533 22.6536 19.1499 17.6003 19.1499C16.1969 19.1499 14.8674 18.834 13.6789 18.2693Z" fill="#00FFFF"/>
</svg>
