<svg width="31" height="28" viewBox="0 0 31 28" fill="none" xmlns="http://www.w3.org/2000/svg">
<path fill-rule="evenodd" clip-rule="evenodd" d="M4.8252 7.06813C4.8252 6.70044 4.98586 6.34781 5.27186 6.08782C5.55785 5.82783 5.94574 5.68176 6.3502 5.68176H24.6502C25.0546 5.68176 25.4425 5.82783 25.7285 6.08782C26.0145 6.34781 26.1752 6.70044 26.1752 7.06813C26.1752 7.43581 26.0145 7.78844 25.7285 8.04843C25.4425 8.30843 25.0546 8.45449 24.6502 8.45449H6.3502C5.94574 8.45449 5.55785 8.30843 5.27186 8.04843C4.98586 7.78844 4.8252 7.43581 4.8252 7.06813ZM4.8252 13.9999C4.8252 13.6323 4.98586 13.2796 5.27186 13.0196C5.55785 12.7596 5.94574 12.6136 6.3502 12.6136H24.6502C25.0546 12.6136 25.4425 12.7596 25.7285 13.0196C26.0145 13.2796 26.1752 13.6323 26.1752 13.9999C26.1752 14.3676 26.0145 14.7203 25.7285 14.9803C25.4425 15.2402 25.0546 15.3863 24.6502 15.3863H6.3502C5.94574 15.3863 5.55785 15.2402 5.27186 14.9803C4.98586 14.7203 4.8252 14.3676 4.8252 13.9999ZM4.8252 20.9318C4.8252 20.5641 4.98586 20.2114 5.27186 19.9515C5.55785 19.6915 5.94574 19.5454 6.3502 19.5454H24.6502C25.0546 19.5454 25.4425 19.6915 25.7285 19.9515C26.0145 20.2114 26.1752 20.5641 26.1752 20.9318C26.1752 21.2994 26.0145 21.6521 25.7285 21.9121C25.4425 22.1721 25.0546 22.3181 24.6502 22.3181H6.3502C5.94574 22.3181 5.55785 22.1721 5.27186 21.9121C4.98586 21.6521 4.8252 21.2994 4.8252 20.9318Z" fill="#00FFF4"/>
</svg>
