<svg width="94" height="24" viewBox="0 0 94 24" fill="none" xmlns="http://www.w3.org/2000/svg">
<g clip-path="url(#clip0_699_6660)">
<g clip-path="url(#clip1_699_6660)">
<path fill-rule="evenodd" clip-rule="evenodd" d="M11.5756 19.4799C14.1408 18.1954 15.9142 15.4397 15.9142 12.2474C15.9142 9.055 14.1407 6.2992 11.5754 5.01479C9.01018 6.2992 7.23663 9.055 7.23663 12.2474C7.23663 15.4397 9.01006 18.1954 11.5752 19.4798C10.5889 19.9736 9.48569 20.2499 8.32119 20.2499C4.12771 20.2499 0.72821 16.6669 0.72821 12.2471C0.72821 7.82733 4.12771 4.24438 8.32119 4.24438C9.48587 4.24438 10.5893 4.52074 11.5756 5.01464C12.5619 4.52083 13.6652 4.24452 14.8298 4.24452C19.0232 4.24452 22.4228 7.82747 22.4228 12.2473C22.4228 16.667 19.0232 20.25 14.8298 20.25C13.6652 20.25 12.5619 19.9737 11.5756 19.4799Z" fill="#00FFFF"/>
<path d="M33.0643 19.6307H42.4956V17.3194H35.5226V4.37131H33.0643V19.6307Z" fill="white"/>
<path d="M53.348 8.59622H50.9843V15.8532C50.7242 16.9466 49.826 17.6177 48.8096 17.6177C47.4623 17.6177 46.8477 16.723 46.8477 15.356V8.59622H44.4839V15.7786C44.4839 18.2141 45.784 19.8792 48.1714 19.8792C49.4006 19.8792 50.417 19.2827 50.9843 18.5869V19.6307H53.348V8.59622Z" fill="white"/>
<path d="M56.283 19.6307H58.6467V12.3738C58.9067 11.2803 59.8285 10.6092 60.845 10.6092C62.1926 10.6092 62.8305 11.504 62.8305 12.8709V19.6307H65.1945V12.4483C65.1945 10.0128 63.8705 8.3477 61.4829 8.3477C60.2542 8.3477 59.214 8.94416 58.6467 9.64003V8.59623H56.283V19.6307Z" fill="white"/>
<path d="M76.07 19.6307V12.3987C76.07 9.88855 74.5103 8.3477 71.8628 8.3477C69.7116 8.3477 68.0572 9.76429 67.7497 11.6531H70.0191C70.2789 10.8826 70.8698 10.4601 71.8158 10.4601C73.1627 10.4601 73.8247 11.33 73.8247 12.4483V13.3431C73.3991 13.02 72.3355 12.672 71.3901 12.672C69.0737 12.672 67.3005 14.1383 67.3005 16.2259C67.3005 18.4875 69.0737 19.8295 71.2243 19.8295C72.4067 19.8295 73.4702 19.3822 73.8247 19.0094V19.6307H76.07ZM73.8247 16.6981C73.5649 17.394 72.6195 17.8165 71.6735 17.8165C70.6099 17.8165 69.4993 17.3443 69.4993 16.2259C69.4993 15.1324 70.6099 14.6602 71.6735 14.6602C72.6195 14.6602 73.5649 15.0827 73.8247 15.7786V16.6981Z" fill="white"/>
<path d="M81.459 19.6307V13.4424H87.8174V11.1809H81.459V6.65773H88.266V4.37131H79.0003V19.6307H81.459Z" fill="white"/>
<path d="M92.9259 8.59622H90.5619V19.6307H92.9259V8.59622ZM93.2093 5.266C93.2093 4.42101 92.5238 3.75 91.7436 3.75C90.964 3.75 90.2785 4.42101 90.2785 5.266C90.2785 6.11098 90.964 6.782 91.7436 6.782C92.5238 6.782 93.2093 6.11098 93.2093 5.266Z" fill="white"/>
</g>
</g>
<defs>
<clipPath id="clip0_699_6660">
<rect width="93.2093" height="24" fill="white"/>
</clipPath>
<clipPath id="clip1_699_6660">
<rect width="92.4811" height="16.5" fill="white" transform="translate(0.72821 3.75)"/>
</clipPath>
</defs>
</svg>
