<svg width="52" height="52" viewBox="0 0 52 52" fill="none" xmlns="http://www.w3.org/2000/svg">
<path d="M2 26C2 12.7452 12.7452 2 26 2V2C39.2548 2 50 12.7452 50 26V26C50 39.2548 39.2548 50 26 50V50C12.7452 50 2 39.2548 2 26V26Z" fill="url(#paint0_linear_2348_41972)" fill-opacity="0.2"/>
<path fill-rule="evenodd" clip-rule="evenodd" d="M14.3335 25.9992C14.3335 19.5604 19.5602 14.3325 26.0002 14.3325C32.4518 14.3325 37.6668 19.5604 37.6668 25.9992C37.6668 32.4404 32.4518 37.6659 26.0002 37.6659C19.5602 37.6659 14.3335 32.4404 14.3335 25.9992ZM24.9735 21.5775C24.9735 21.0187 25.4402 20.5509 26.0002 20.5509C26.5602 20.5509 27.0152 21.0187 27.0152 21.5775V26.7342C27.0152 27.2954 26.5602 27.7492 26.0002 27.7492C25.4402 27.7492 24.9735 27.2954 24.9735 26.7342V21.5775ZM26.0118 31.4604C25.4402 31.4604 24.9852 30.9937 24.9852 30.4337C24.9852 29.8737 25.4402 29.4187 26.0002 29.4187C26.5718 29.4187 27.0268 29.8737 27.0268 30.4337C27.0268 30.9937 26.5718 31.4604 26.0118 31.4604Z" fill="#00FFF4"/>
<path d="M26 48C13.8497 48 4 38.1503 4 26H0C0 40.3594 11.6406 52 26 52V48ZM48 26C48 38.1503 38.1503 48 26 48V52C40.3594 52 52 40.3594 52 26H48ZM26 4C38.1503 4 48 13.8497 48 26H52C52 11.6406 40.3594 0 26 0V4ZM26 0C11.6406 0 0 11.6406 0 26H4C4 13.8497 13.8497 4 26 4V0Z" fill="url(#paint1_linear_2348_41972)" fill-opacity="0.1"/>
<defs>
<linearGradient id="paint0_linear_2348_41972" x1="5.39876" y1="2.29083" x2="46.9106" y2="2.99822" gradientUnits="userSpaceOnUse">
<stop stop-color="#00FFF4"/>
<stop offset="1" stop-color="#2A85FF"/>
</linearGradient>
<linearGradient id="paint1_linear_2348_41972" x1="4.23444" y1="1.99999" x2="55.763" y2="3.90801" gradientUnits="userSpaceOnUse">
<stop stop-color="#00FFF4"/>
<stop offset="1" stop-color="#2A85FF"/>
</linearGradient>
</defs>
</svg>
